# xmcd
#
# Track frame offsets: 
#        150
#        13166
#        25180
#        37131
#        69534
#        78318
#        89714
#        110735
#        122323
#        124562
#        143397
#        154604
#        169488
#        187055
#        199142
#        210625
#        223074
#
# Disc length: 3053 seconds
#
# Revision: 0
# Processed by: cddbd v1.5.1PL0 Copyright (c) Steve Scherf et al.
# Submitted via: ExactAudioCopy v0.95a5
#
DISCID=f50beb11
DTITLE=Scott H. Biram - The Dirty Old One Man Band
DYEAR=2004
DGENRE=Blues
TTITLE0=Blood Sweat And Murder
TTITLE1=Hit The Road
TTITLE2=Muleskinner Blues
TTITLE3=I See The Light - What's His Name?
TTITLE4=Raisin' Hell Again
TTITLE5=Whiskey
TTITLE6=Someday Baby
TTITLE7=Sweet Thing
TTITLE8=BBQ Commercial
TTITLE9=Get Me Religion - Live
TTITLE10=You Don't Know My Mind - Live
TTITLE11=Freight Train Boogie - Live
TTITLE12=Throw A Boogie - Black Betty - Just A Little Bit - Live
TTITLE13=Open Up Them Pearly Gates - Live
TTITLE14=Lost Case Of Being Found - Live
TTITLE15=Downtown Chicken - Live
TTITLE16=CB Transmissions
EXTD=
EXTT0=
EXTT1=
EXTT2=
EXTT3=
EXTT4=
EXTT5=
EXTT6=
EXTT7=
EXTT8=
EXTT9=
EXTT10=
EXTT11=
EXTT12=
EXTT13=
EXTT14=
EXTT15=
EXTT16=
PLAYORDER=
